<svg xmlns="http://www.w3.org/2000/svg" viewBox="-0.5 -0.5 24 24" id="Interface-Essential-Paginate-Filter-Heart--Streamline-Pixel.svg" height="24" width="24"><desc>Interface Essential Paginate Filter Heart Streamline Icon: https://streamlinehq.com</desc><title>interface-essential-paginate-filter-heart</title><g><path d="M21.3540625 1.63875h1.0996875v16.430625h-1.0996875Z" fill="#000000" stroke-width="1"></path><path d="m18.069375 22.45375 0 -1.0996875 1.0925 0 0 -2.1921874999999997 2.1921874999999997 0 0 -1.0925 -16.430625 0 0 1.0925 1.0996875 0 0 1.0996875 1.0925 0 0 -1.0996875 2.1921874999999997 0 0 1.0996875 1.0925 0 0 -1.0996875 2.1921874999999997 0 0 1.0996875 1.0925 0 0 -1.0996875 2.1921874999999997 0 0 1.0996875 1.0996875 0 0 -1.0996875 1.0925 0 0 1.0996875 -1.0925 0 0 1.0925 -2.1921874999999997 0 0 -1.0925 -1.0996875 0 0 1.0925 -2.185 0 0 -1.0925 -1.0996875 0 0 1.0925 -2.185 0 0 -1.0925 -1.0996875 0 0 1.0925 -2.1921874999999997 0 0 -1.0925 -1.0925 0 0 1.0925 -2.1921874999999997 0 0 1.0996875 16.430625 0z" fill="#000000" stroke-width="1"></path><path d="m9.307812499999999 11.5 1.0925 0 0 1.0925 1.0996875 0 0 1.0996875 1.0925 0 0 1.0925 1.0925 0 0 -1.0925 1.0996875 0 0 -1.0996875 1.0925 0 0 -1.0925 1.0996875 0 0 -1.0996875 1.0925 0 0 -3.2846875000000004 -1.0925 0 0 -1.0925 -3.291875 0 0 1.0925 -1.0925 0 0 -1.0925 -3.2846875000000004 0 0 1.0925 -1.0925 0 0 3.2846875000000004 1.0925 0 0 1.0996875z" fill="#000000" stroke-width="1"></path><path d="M4.9234374999999995 0.54625h16.430625v1.0925H4.9234374999999995Z" fill="#000000" stroke-width="1"></path><path d="M2.7384375 19.161875h1.0925v1.0996875H2.7384375Z" fill="#000000" stroke-width="1"></path><path d="m2.7384375 19.161875 0 -1.0925 -1.0996875 0 0 -2.1921874999999997 1.0996875 0 0 -1.0925 -1.0996875 0 0 -2.1921874999999997 1.0996875 0 0 -1.0925 -1.0996875 0 0 -2.1921874999999997 1.0996875 0 0 -1.0925 -1.0996875 0 0 -2.1921874999999997 1.0996875 0 0 -1.0996875 1.0925 0 0 1.0996875 -1.0925 0 0 1.0925 1.0925 0 0 2.1921874999999997 -1.0925 0 0 1.0925 1.0925 0 0 2.1921874999999997 -1.0925 0 0 1.0996875 1.0925 0 0 2.185 -1.0925 0 0 1.0996875 1.0925 0 0 1.0925 1.0925 0 0 -16.430625 -1.0925 0 0 2.1921874999999997 -2.1921874999999997 0 0 1.0925 -1.0925 0 0 16.430625 1.0925 0 0 -2.1921874999999997 1.0996875 0z" fill="#000000" stroke-width="1"></path></g></svg>